<svg width="169" height="155" viewBox="0 0 169 155" fill="none" xmlns="http://www.w3.org/2000/svg">
<path d="M97.1744 87.8472C95.816 88.1514 94.493 88.715 93.2875 89.5024C90.1467 91.5037 88.3194 94.3604 89.2063 95.8826C90.0933 97.4047 93.3583 97.0154 96.4991 95.0141C97.7209 94.2545 98.8063 93.2837 99.6884 92.1617C100.098 91.6196 100.171 90.9442 99.8761 90.4393L98.7239 88.4619C98.4307 87.9554 97.8226 87.7145 97.1744 87.8472Z" fill="#D5D6DB"/>
<path d="M89.2873 60.8541C88.3024 61.0749 87.343 61.4837 86.4687 62.0547C84.1919 63.5055 82.8661 65.5769 83.5087 66.6797C84.1513 67.7825 86.5198 67.5 88.7964 66.0493C89.6823 65.4983 90.4692 64.794 91.109 63.9803C91.4055 63.5874 91.4586 63.0981 91.2446 62.732L90.4103 61.3002C90.1981 60.933 89.7574 60.758 89.2873 60.8541Z" fill="#D5D6DB"/>
<path d="M76.4733 61.9845C76.254 61.9601 76.0202 62.0185 75.8174 62.148L70.4693 65.5562C70.0219 65.8404 69.8429 66.3878 70.0698 66.7789C70.1217 66.8686 70.1927 66.9451 70.279 67.0041L83.4606 76.0891L101.294 64.7244L76.4733 61.9845Z" fill="#029BC5"/>
<path d="M132.85 60.6999L84.3181 91.252L55.6054 102.677L40.9623 105.588L39.3513 102.851L120.246 52.9043C122.657 51.4095 125.343 50.4919 128.032 50.2448C129.209 50.1429 130.372 50.1821 131.493 50.3609C132.487 50.5116 133.43 50.8023 134.294 51.2244C135.258 51.7026 137.092 51.7578 137.687 52.7106C137.689 52.7091 139.091 57.0835 132.85 60.6999Z" fill="#E1E6E9"/>
<path d="M84.9615 87.2094L63.9662 120.679C63.704 121.15 63.8597 121.676 64.3135 121.855C64.5921 121.965 64.933 121.922 65.2194 121.74L70.5634 118.35C71.5913 117.697 72.5014 116.869 73.2375 115.915L113.954 68.0462L84.9615 87.2094Z" fill="#029BC5"/>
<path d="M31.9819 86.092C31.6317 85.9723 31.2149 86.0344 30.8631 86.2584L26.4456 89.0718C25.8437 89.4549 25.6038 90.1913 25.9097 90.717C25.9679 90.8169 26.0436 90.9049 26.1344 90.9773L38.5111 100.89L51.5241 92.7615L31.9819 86.092Z" fill="#029BC5"/>
<path d="M42.6596 102.677L35.9981 112.006C35.9004 112.14 35.9234 112.308 36.0494 112.382C36.1402 112.435 36.2642 112.425 36.365 112.358L40.4932 109.742C40.5253 109.721 40.5543 109.696 40.5783 109.667L50.3119 97.832L42.6596 102.677Z" fill="#029BC5"/>
<path d="M130.697 50.7631C129.542 50.5777 128.345 50.5381 127.132 50.6447C125.951 52.2958 125.196 54.1505 124.943 56.0239C124.924 56.4002 125.228 56.6711 125.62 56.6289C125.743 56.6157 125.864 56.5728 125.973 56.504L133.581 51.6597C132.692 51.2211 131.72 50.9193 130.697 50.7631Z" fill="#029BC5"/>
<path d="M114.117 59.6712L119.084 56.5343L123.711 64.4033L118.744 67.5403L114.117 59.6712Z" fill="#D5D6DB"/>
<path d="M110.992 62.7834C110.393 63.1626 110.154 63.8914 110.458 64.4111L110.95 65.2531C111.274 65.7595 112.013 65.8486 112.602 65.4519C113.162 65.0741 113.387 64.3874 113.117 63.8804L112.625 63.0384C112.321 62.5191 111.59 62.4049 110.992 62.7834Z" fill="#3A556A"/>
<path d="M106.528 65.5559C105.929 65.935 105.69 66.6638 105.994 67.1836L106.486 68.0255C106.81 68.532 107.549 68.6211 108.137 68.2244C108.697 67.8466 108.923 67.1599 108.653 66.6529L108.161 65.8109C107.857 65.2918 107.126 65.1775 106.528 65.5559Z" fill="#3A556A"/>
<path d="M102.062 68.3293C101.464 68.7089 101.225 69.4368 101.529 69.9561L102.021 70.798C102.345 71.3045 103.084 71.3935 103.673 70.9968C104.233 70.6191 104.458 69.9324 104.188 69.4254L103.696 68.5834C103.392 68.0637 102.66 67.95 102.062 68.3293Z" fill="#3A556A"/>
<path d="M97.5973 71.1016C96.9994 71.4813 96.7611 72.2092 97.0647 72.7285L97.557 73.5705C97.8808 74.0769 98.6201 74.166 99.2084 73.7693C99.7682 73.3915 99.9937 72.7048 99.7239 72.1978L99.2316 71.3558C98.9274 70.8362 98.1959 70.7225 97.5973 71.1016Z" fill="#3A556A"/>
<path d="M93.1334 73.8743C92.5351 74.2541 92.2966 74.9823 92.6004 75.5018L93.093 76.3442C93.3967 76.8634 94.1279 76.9772 94.7263 76.5982C95.3247 76.2192 95.5636 75.491 95.2599 74.9717L94.7673 74.1294C94.4644 73.6096 93.7334 73.4952 93.1346 73.8735C93.1341 73.8738 93.1339 73.874 93.1334 73.8743Z" fill="#3A556A"/>
<path d="M88.669 76.6468C88.0708 77.0266 87.8323 77.7548 88.1361 78.2743L88.6287 79.1166C88.9323 79.6359 89.6636 79.7496 90.2619 79.3706C90.8603 78.9916 91.0992 78.2635 90.7956 77.7442L90.303 76.9019C90 76.3821 89.269 76.2676 88.6703 76.646C88.6698 76.6463 88.6693 76.6466 88.669 76.6468Z" fill="#3A556A"/>
<path d="M84.2044 79.4193C83.6062 79.7991 83.3677 80.5273 83.6714 81.0468L84.164 81.8891C84.4685 82.4079 85.2001 82.5204 85.7978 82.141C86.3945 81.7621 86.6329 81.0355 86.3306 80.5168L85.838 79.6745C85.5345 79.1549 84.8033 79.0406 84.2044 79.4193Z" fill="#3A556A"/>
<path d="M79.7398 82.1918C79.1416 82.5716 78.9031 83.2998 79.2068 83.8193L79.6994 84.6616C80.0039 85.1804 80.7355 85.293 81.3332 84.9135C81.9299 84.5347 82.1683 83.808 81.866 83.2894L81.3734 82.447C81.0699 81.9274 80.3387 81.8131 79.7398 82.1918Z" fill="#3A556A"/>
<path d="M75.2756 84.9642C74.6773 85.344 74.4388 86.0722 74.7426 86.5917L75.2352 87.434C75.5396 87.9528 76.2712 88.0654 76.869 87.6859C77.4657 87.307 77.7041 86.5804 77.4018 86.0618L76.9092 85.2195C76.6054 84.7 75.8742 84.5857 75.2756 84.9642Z" fill="#3A556A"/>
<path d="M70.8097 87.7374C70.2114 88.1164 69.9725 88.8446 70.2762 89.3639L70.2768 89.365L70.7694 90.2073C71.0738 90.7261 71.8054 90.8387 72.4031 90.4592C72.9999 90.0803 73.2382 89.3537 72.936 88.835L72.4434 87.9927C72.1399 87.473 71.4086 87.3587 70.8097 87.7374Z" fill="#3A556A"/>
<path d="M66.3465 90.5091C65.7481 90.8881 65.5092 91.6163 65.8129 92.1355L65.8135 92.1366L66.3061 92.9789C66.6106 93.4977 67.3422 93.6103 67.9399 93.2308C68.5366 92.852 68.775 92.1253 68.4728 91.6067L67.9802 90.7644C67.6764 90.2449 66.9451 90.1306 66.3465 90.5091Z" fill="#3A556A"/>
</svg>
