<svg width="14" height="16" viewBox="0 0 14 16" fill="none" xmlns="http://www.w3.org/2000/svg">
<path fill-rule="evenodd" clip-rule="evenodd" d="M1.40216 7C1.95445 7 2.40216 7.44772 2.40216 8V13.3333C2.40216 13.4153 2.4352 13.498 2.50056 13.5621C2.56659 13.6269 2.66026 13.6667 2.76195 13.6667H10.9207C11.0224 13.6667 11.116 13.6269 11.1821 13.5621C11.2474 13.498 11.2805 13.4153 11.2805 13.3333V8C11.2805 7.44772 11.7282 7 12.2805 7C12.8328 7 13.2805 7.44772 13.2805 8V13.3333C13.2805 13.9586 13.027 14.5542 12.5823 14.9902C12.1383 15.4255 11.5403 15.6667 10.9207 15.6667H2.76195C2.14236 15.6667 1.54429 15.4255 1.10031 14.9902C0.655652 14.5542 0.402161 13.9586 0.402161 13.3333V8C0.402161 7.44772 0.849876 7 1.40216 7Z" fill="#0768B5"/>
<path fill-rule="evenodd" clip-rule="evenodd" d="M6.14115 0.619314C6.53003 0.238005 7.15253 0.238005 7.54141 0.619314L10.261 3.28598C10.6553 3.67265 10.6615 4.30578 10.2749 4.70013C9.88821 5.09447 9.25507 5.10069 8.86073 4.71402L6.84128 2.73386L4.82183 4.71402C4.42749 5.10069 3.79436 5.09447 3.40769 4.70013C3.02102 4.30578 3.02724 3.67265 3.42158 3.28598L6.14115 0.619314Z" fill="#0768B5"/>
<path fill-rule="evenodd" clip-rule="evenodd" d="M6.84131 0.333332C7.39359 0.333332 7.84131 0.781047 7.84131 1.33333V10C7.84131 10.5523 7.39359 11 6.84131 11C6.28902 11 5.84131 10.5523 5.84131 10V1.33333C5.84131 0.781047 6.28902 0.333332 6.84131 0.333332Z" fill="#0768B5"/>
</svg>
