<svg width="81" height="81" viewBox="0 0 81 81" fill="none" xmlns="http://www.w3.org/2000/svg">
<path d="M64.935 18.8273H63.585L52.1775 7.41977C51.2663 6.50852 49.7812 6.50852 48.8363 7.41977C47.925 8.33102 47.925 9.81602 48.8363 10.761L56.9025 18.8273H24.0975L32.1637 10.761C33.075 9.84977 33.075 8.36477 32.1637 7.41977C31.2525 6.50852 29.7675 6.50852 28.8225 7.41977L17.4488 18.8273H16.0988C13.0613 18.8273 6.75 18.8273 6.75 27.4673C6.75 30.741 7.425 32.901 8.8425 34.3186C9.6525 35.1623 10.6313 35.601 11.6775 35.8373C12.6562 36.0735 13.7025 36.1073 14.715 36.1073H66.285C67.3312 36.1073 68.31 36.0398 69.255 35.8373C72.09 35.1623 74.25 33.1373 74.25 27.4673C74.25 18.8273 67.9387 18.8273 64.935 18.8273Z" fill="#292D32"/>
<path d="M64.2958 40.5H16.4384C14.3459 40.5 12.7597 42.3562 13.0972 44.415L15.9322 61.7625C16.8772 67.5675 19.4084 74.25 30.6472 74.25H49.5808C60.9545 74.25 62.9795 68.5462 64.1945 62.1675L67.6033 44.5162C68.0083 42.4237 66.422 40.5 64.2958 40.5ZM40.502 65.8125C32.6047 65.8125 26.1584 59.3662 26.1584 51.4688C26.1584 50.085 27.3059 48.9375 28.6897 48.9375C30.0734 48.9375 31.2209 50.085 31.2209 51.4688C31.2209 56.5987 35.372 60.75 40.502 60.75C45.632 60.75 49.7833 56.5987 49.7833 51.4688C49.7833 50.085 50.9308 48.9375 52.3145 48.9375C53.6983 48.9375 54.8458 50.085 54.8458 51.4688C54.8458 59.3662 48.3995 65.8125 40.502 65.8125Z" fill="#292D32"/>
</svg>
