<svg width="81" height="81" viewBox="0 0 81 81" fill="none" xmlns="http://www.w3.org/2000/svg">
<path d="M63.2151 49.5148L49.2088 63.521C48.6688 64.061 48.1626 65.1073 48.0276 65.8498L47.2513 71.2161C46.9813 73.1398 48.3313 74.5236 50.2551 74.2198L55.6213 73.4436C56.3638 73.3423 57.4101 72.8023 57.9501 72.2623L71.9563 58.2561C74.3526 55.8598 75.5001 53.0248 71.9563 49.481C68.4463 45.9711 65.6451 47.0848 63.2151 49.5148Z" fill="#292D32"/>
<path d="M61.2245 51.5078C62.4058 55.7603 65.747 59.0678 69.9995 60.2828L61.2245 51.5078Z" fill="#292D32"/>
<path d="M6.85047 49.3721C6.85047 49.4733 6.78297 49.6083 6.78297 49.7096C9.88797 55.9196 14.9505 61.0158 21.1605 64.0871C21.2617 64.0871 21.3967 64.0196 21.498 64.0196C20.3505 60.1046 19.473 56.0883 18.8317 52.0721C14.7817 51.3971 10.7655 50.5196 6.85047 49.3721Z" fill="#292D32"/>
<path d="M64.3616 21.7065C61.1891 15.0577 55.8228 9.69148 49.2078 6.55273C50.4228 10.569 51.4353 14.6865 52.1103 18.804C56.2278 19.479 60.3453 20.4577 64.3616 21.7065Z" fill="#292D32"/>
<path d="M6.51271 21.6992C10.5627 20.4842 14.6802 19.4717 18.7977 18.7967C19.4727 14.7804 20.3165 10.7979 21.464 6.88293C21.3627 6.88293 21.2277 6.81543 21.1265 6.81543C14.7815 9.95418 9.61771 15.2529 6.51271 21.6992Z" fill="#292D32"/>
<path d="M46.6415 18.09C45.8315 13.7025 44.819 9.315 43.3677 5.0625C43.3002 4.82625 43.3002 4.62375 43.2665 4.35375C40.769 3.74625 38.1365 3.375 35.4365 3.375C32.7027 3.375 30.1039 3.74625 27.5727 4.3875C27.5389 4.62375 27.5727 4.82625 27.5052 5.09625C26.0877 9.34875 25.0414 13.7025 24.2314 18.09C31.6902 17.28 39.1827 17.28 46.6415 18.09Z" fill="#292D32"/>
<path d="M18.09 24.2314C13.6688 25.0414 9.34875 26.0877 5.0625 27.5052C4.82625 27.5727 4.62375 27.5727 4.3875 27.6064C3.74625 30.1039 3.375 32.7364 3.375 35.4365C3.375 38.1702 3.74625 40.769 4.3875 43.3002C4.62375 43.334 4.82625 43.3002 5.09625 43.3677C9.34875 44.7852 13.7025 45.8315 18.1237 46.6415C17.28 39.1827 17.28 31.6902 18.09 24.2314Z" fill="#292D32"/>
<path d="M66.4905 27.6064C66.2543 27.6064 66.0518 27.5727 65.7818 27.5052C61.5293 26.0877 57.1418 25.0414 52.7543 24.2314C53.598 31.6902 53.598 39.1827 52.7543 46.6077C57.1418 45.7977 61.5293 44.7852 65.7818 43.334C66.018 43.2665 66.2205 43.3002 66.4905 43.2665C67.098 40.7352 67.503 38.1365 67.503 35.4027C67.503 32.7364 67.1318 30.1377 66.4905 27.6064Z" fill="#292D32"/>
<path d="M24.2314 52.7808C25.0414 57.2021 26.0539 61.5558 27.5052 65.8083C27.5727 66.0446 27.5389 66.2471 27.5727 66.5171C30.1039 67.1246 32.7027 67.4958 35.4365 67.4958C38.1365 67.4958 40.769 67.1246 43.2665 66.4833C43.3002 66.2471 43.3002 66.0446 43.3677 65.7746C44.7852 61.5221 45.8315 57.1683 46.6415 52.7471C42.929 53.1521 39.1827 53.4558 35.4365 53.4558C31.6902 53.4558 27.9439 53.1858 24.2314 52.7808Z" fill="#292D32"/>
<path d="M23.4549 23.4615C22.4424 31.4265 22.4424 39.4592 23.4549 47.4579C31.4199 48.4704 39.4524 48.4704 47.4511 47.4579C48.4636 39.4929 48.4636 31.4603 47.4511 23.4615C39.4524 22.449 31.4199 22.449 23.4549 23.4615Z" fill="#292D32"/>
</svg>
