<svg width="81" height="81" viewBox="0 0 81 81" fill="none" xmlns="http://www.w3.org/2000/svg">
<path d="M28.3184 62.4061V28.1161C28.3184 26.7661 28.7234 25.4499 29.4659 24.3361L38.6795 10.6336C40.1308 8.43989 43.742 6.88739 46.8133 8.03489C50.1208 9.14864 52.3145 12.8611 51.6058 16.1686L49.8508 27.2049C49.7158 28.2174 49.9858 29.1286 50.5595 29.8374C51.1333 30.4786 51.977 30.8836 52.8883 30.8836H66.7595C69.4258 30.8836 71.7208 31.9636 73.0708 33.8536C74.3533 35.6761 74.5895 38.0386 73.7458 40.4349L65.4433 65.7136C64.397 69.8986 59.8408 73.3074 55.3183 73.3074H42.1558C39.8945 73.3074 36.722 72.5311 35.2708 71.0798L30.9509 67.7386C29.2971 66.4898 28.3184 64.4986 28.3184 62.4061Z" fill="#292D32"/>
<path d="M17.5837 21.5293H14.1075C8.87625 21.5293 6.75 23.5543 6.75 28.5493V62.5018C6.75 67.4968 8.87625 69.5218 14.1075 69.5218H17.5837C22.815 69.5218 24.9412 67.4968 24.9412 62.5018V28.5493C24.9412 23.5543 22.815 21.5293 17.5837 21.5293Z" fill="#292D32"/>
</svg>
