<svg width="100" height="100" viewBox="0 0 100 100" fill="none" xmlns="http://www.w3.org/2000/svg">
<path d="M73.5289 35.6281C72.0171 36.2787 70.4277 36.7318 68.8001 36.9761C69.561 36.8456 70.6807 35.4759 71.1264 34.9215C71.8036 34.0852 72.3196 33.1305 72.6484 32.1059C72.6484 32.0298 72.7245 31.9211 72.6484 31.8667C72.61 31.8458 72.567 31.8348 72.5234 31.8348C72.4797 31.8348 72.4367 31.8458 72.3983 31.8667C70.6309 32.8238 68.7499 33.5543 66.7998 34.0409C66.7318 34.0617 66.6595 34.0636 66.5906 34.0463C66.5216 34.0291 66.4587 33.9934 66.4085 33.9431C66.2567 33.7623 66.0933 33.5917 65.9193 33.4322C65.1239 32.7195 64.2214 32.1362 63.245 31.7037C61.927 31.1629 60.5033 30.9287 59.0814 31.0188C57.7018 31.1059 56.3549 31.476 55.1244 32.1059C53.9127 32.77 52.8478 33.6723 51.9936 34.7584C51.0951 35.8763 50.4464 37.1737 50.0912 38.5632C49.7982 39.885 49.765 41.2511 49.9933 42.5855C49.9933 42.8138 49.9933 42.8464 49.7977 42.8138C42.0467 41.6723 35.6872 38.922 30.4909 33.0191C30.2626 32.7582 30.143 32.7582 29.9582 33.0191C27.697 36.4543 28.795 41.8898 31.6214 44.5749C32.0019 44.9336 32.3933 45.2815 32.8064 45.6076C31.5105 45.5156 30.2462 45.1644 29.0885 44.5749C28.8711 44.4336 28.7515 44.5097 28.7406 44.7706C28.7098 45.1323 28.7098 45.4959 28.7406 45.8577C28.9675 47.5911 29.6506 49.2333 30.7202 50.6161C31.7898 51.999 33.2075 53.073 34.8284 53.7282C35.2235 53.8975 35.6352 54.025 36.0568 54.1087C34.8571 54.3449 33.6267 54.3816 32.415 54.2174C32.1541 54.1631 32.0563 54.3044 32.1541 54.5544C33.7521 58.9028 37.22 60.229 39.7638 60.9683C40.1116 61.0226 40.4595 61.0226 40.8509 61.1096C40.8509 61.1096 40.8509 61.1096 40.7856 61.1748C40.0355 62.5446 37.0025 63.4686 35.6111 63.9469C33.0713 64.8592 30.3633 65.2079 27.6753 64.9688C27.2513 64.9036 27.1535 64.9144 27.0448 64.9688C26.9361 65.0231 27.0448 65.1427 27.1643 65.2514C27.7079 65.6102 28.2514 65.9254 28.8167 66.2298C30.4996 67.1477 32.2787 67.8769 34.1217 68.404C43.6664 71.0348 54.4069 69.0997 61.5709 61.9793C67.202 56.3916 69.1805 48.6841 69.1805 40.9657C69.1805 40.6722 69.5393 40.4983 69.7458 40.3461C71.1705 39.236 72.4265 37.9251 73.4746 36.4543C73.6561 36.235 73.7491 35.9559 73.7355 35.6716C73.7355 35.5085 73.7355 35.5411 73.5289 35.6281Z" fill="#33CCFF"/>
</svg>
