<svg width="17" height="14" viewBox="0 0 17 14" fill="none" xmlns="http://www.w3.org/2000/svg">
<path fill-rule="evenodd" clip-rule="evenodd" d="M2.98943 2C2.88773 2 2.79407 2.0398 2.72804 2.10454C2.66267 2.16864 2.62964 2.25134 2.62964 2.33333V6.33333C2.62964 7.82982 3.23573 9.26907 4.32113 10.3334C4.85875 10.8605 5.49805 11.2797 6.20304 11.566C6.90806 11.8524 7.66436 12 8.42858 12C9.97283 12 11.45 11.3983 12.536 10.3334C13.6214 9.26907 14.2275 7.82982 14.2275 6.33333V2.33333C14.2275 2.25134 14.1945 2.16864 14.1291 2.10454C14.0631 2.0398 13.9694 2 13.8677 2H2.98943ZM2.98943 0H13.8677C14.4873 0 15.0854 0.241156 15.5294 0.676506C15.974 1.11251 16.2275 1.70808 16.2275 2.33333V6.33333C16.2275 8.37307 15.401 10.3252 13.9363 11.7614C12.4723 13.1969 10.4907 14 8.42858 14C7.40711 14 6.39519 13.8027 5.45044 13.419C4.50565 13.0353 3.64594 12.4724 2.92088 11.7614C1.45618 10.3252 0.629639 8.37307 0.629639 6.33333V2.33333C0.629639 1.70808 0.88313 1.11251 1.32778 0.676506C1.77177 0.241156 2.36984 0 2.98943 0Z" fill="#0768B5"/>
<path fill-rule="evenodd" clip-rule="evenodd" d="M4.99497 4.96654C5.38164 4.5722 6.01477 4.56598 6.40911 4.95265L8.42856 6.93281L10.448 4.95265C10.8424 4.56598 11.4755 4.5722 11.8622 4.96654C12.2488 5.36088 12.2426 5.99402 11.8483 6.38069L9.12869 9.04735C8.73981 9.42866 8.11731 9.42866 7.72843 9.04735L5.00886 6.38069C4.61452 5.99402 4.6083 5.36088 4.99497 4.96654Z" fill="#0768B5"/>
</svg>
