<svg width="50" height="50" viewBox="0 0 50 50" fill="none" xmlns="http://www.w3.org/2000/svg">
<path fill-rule="evenodd" clip-rule="evenodd" d="M25 15.1667C19.5692 15.1667 15.1666 19.5692 15.1666 25C15.1666 30.4308 19.5692 34.8333 25 34.8333C30.4308 34.8333 34.8333 30.4308 34.8333 25C34.8333 19.5692 30.4308 15.1667 25 15.1667ZM13.1666 25C13.1666 18.4646 18.4646 13.1667 25 13.1667C31.5353 13.1667 36.8333 18.4646 36.8333 25C36.8333 31.5354 31.5353 36.8333 25 36.8333C18.4646 36.8333 13.1666 31.5354 13.1666 25Z" fill="#FFCF26"/>
<path fill-rule="evenodd" clip-rule="evenodd" d="M25 0.166664C25.5523 0.166664 26 0.614379 26 1.16666V5.5C26 6.05228 25.5523 6.5 25 6.5C24.4477 6.5 24 6.05228 24 5.5V1.16666C24 0.614379 24.4477 0.166664 25 0.166664Z" fill="#FFCF26"/>
<path fill-rule="evenodd" clip-rule="evenodd" d="M25 43.5C25.5523 43.5 26 43.9477 26 44.5V48.8333C26 49.3856 25.5523 49.8333 25 49.8333C24.4477 49.8333 24 49.3856 24 48.8333V44.5C24 43.9477 24.4477 43.5 25 43.5Z" fill="#FFCF26"/>
<path fill-rule="evenodd" clip-rule="evenodd" d="M7.4362 7.43623C7.82673 7.0457 8.45989 7.0457 8.85042 7.43623L11.9271 10.5129C12.3176 10.9034 12.3176 11.5366 11.9271 11.9271C11.5366 12.3176 10.9034 12.3176 10.5129 11.9271L7.4362 8.85044C7.04568 8.45992 7.04568 7.82675 7.4362 7.43623Z" fill="#FFCF26"/>
<path fill-rule="evenodd" clip-rule="evenodd" d="M38.0729 38.0729C38.4634 37.6824 39.0966 37.6824 39.4871 38.0729L42.5638 41.1496C42.9543 41.5401 42.9543 42.1733 42.5638 42.5638C42.1733 42.9543 41.5401 42.9543 41.1496 42.5638L38.0729 39.4871C37.6824 39.0966 37.6824 38.4634 38.0729 38.0729Z" fill="#FFCF26"/>
<path fill-rule="evenodd" clip-rule="evenodd" d="M0.166626 25C0.166626 24.4477 0.614341 24 1.16663 24H5.49996C6.05224 24 6.49996 24.4477 6.49996 25C6.49996 25.5523 6.05224 26 5.49996 26H1.16663C0.614341 26 0.166626 25.5523 0.166626 25Z" fill="#FFCF26"/>
<path fill-rule="evenodd" clip-rule="evenodd" d="M43.5 25C43.5 24.4477 43.9477 24 44.5 24H48.8333C49.3856 24 49.8333 24.4477 49.8333 25C49.8333 25.5523 49.3856 26 48.8333 26H44.5C43.9477 26 43.5 25.5523 43.5 25Z" fill="#FFCF26"/>
<path fill-rule="evenodd" clip-rule="evenodd" d="M11.9271 38.0729C12.3176 38.4634 12.3176 39.0966 11.9271 39.4871L8.85042 42.5638C8.45989 42.9543 7.82673 42.9543 7.4362 42.5638C7.04568 42.1733 7.04568 41.5401 7.4362 41.1496L10.5129 38.0729C10.9034 37.6824 11.5366 37.6824 11.9271 38.0729Z" fill="#FFCF26"/>
<path fill-rule="evenodd" clip-rule="evenodd" d="M42.5638 7.43623C42.9543 7.82675 42.9543 8.45992 42.5638 8.85044L39.4871 11.9271C39.0966 12.3176 38.4634 12.3176 38.0729 11.9271C37.6824 11.5366 37.6824 10.9034 38.0729 10.5129L41.1496 7.43623C41.5401 7.0457 42.1733 7.0457 42.5638 7.43623Z" fill="#FFCF26"/>
</svg>
