<svg width="81" height="81" viewBox="0 0 81 81" fill="none" xmlns="http://www.w3.org/2000/svg">
<g clip-path="url(#clip0_50_271)">
<mask id="mask0_50_271" style="mask-type:luminance" maskUnits="userSpaceOnUse" x="0" y="0" width="81" height="81">
<path d="M81 0H0V81H81V0Z" fill="white"/>
</mask>
<g mask="url(#mask0_50_271)">
<path d="M58.0423 4.46086C54.5409 4.54044 51.1085 5.45121 48.0283 7.11807C44.9481 8.78493 42.3082 11.1601 40.3264 14.0478C38.3482 11.1615 35.7124 8.78661 32.6363 7.11882C29.5603 5.451 26.1319 4.538 22.6337 4.45508C16.4175 4.79645 10.5741 7.52804 6.32558 12.0785C2.07707 16.629 -0.247539 22.6459 -0.162015 28.8708V29.2758C-0.19095 29.603 -0.19095 29.9321 -0.162015 30.2594C0.937269 63.0642 40.338 76.545 40.338 76.545C40.338 76.545 79.7214 63.0642 80.838 30.2594C80.8612 29.9319 80.8612 29.6033 80.838 29.2758V28.8708C80.9207 22.6473 78.5949 16.6326 74.3464 12.0837C70.0986 7.53481 64.2567 4.80361 58.0423 4.46086Z" fill="#444A57"/>
</g>
</g>
<defs>
<clipPath id="clip0_50_271">
<rect width="81" height="81" fill="white"/>
</clipPath>
</defs>
</svg>
