<svg width="81" height="81" viewBox="0 0 81 81" fill="none" xmlns="http://www.w3.org/2000/svg">
<g clip-path="url(#clip0_50_252)">
<mask id="mask0_50_252" style="mask-type:luminance" maskUnits="userSpaceOnUse" x="0" y="0" width="81" height="81">
<path d="M81 0H0V81H81V0Z" fill="white"/>
</mask>
<g mask="url(#mask0_50_252)">
<path d="M76.8054 67.693C76.1377 70.5518 74.5096 73.0952 72.193 74.8986C69.877 76.702 67.0119 77.6572 64.0768 77.604L43.6706 76.7245C29.2063 74.688 26.7763 61.4965 26.7763 50.4284V36.4096C26.7769 33.517 27.87 30.7314 29.837 28.6105L46.6792 6.98926C49.1786 4.27574 52.2913 0.700172 56.1619 6.53797C57.7064 8.39119 58.6544 10.6682 58.8812 13.07C58.8818 14.5069 58.5445 15.9238 57.8977 17.2068L51.2036 30.0395H74.0167C75.1883 30.0195 76.339 30.3456 77.3261 30.9768C78.71 31.8243 79.7908 33.0873 80.4139 34.5856C81.0376 36.0839 81.1719 37.7408 80.7975 39.3198L76.8054 67.693Z" fill="#444A58"/>
<path d="M8.67857 71.8705H16.7786C17.2733 71.867 17.7468 71.6697 18.0967 71.3197C18.4465 70.9697 18.6444 70.4964 18.6474 70.0017L20.5161 36.861C20.5146 36.3658 20.3172 35.8914 19.9671 35.5413C19.617 35.1911 19.1425 34.9937 18.6474 34.9922H10.5474C8.24892 35.0028 6.04769 35.9206 4.42245 37.5459C2.7972 39.1711 1.87944 41.3724 1.86879 43.6708L0 63.1804C0.00760775 65.4808 0.924031 67.6851 2.5496 69.3126C4.17517 70.9402 6.37817 71.8595 8.67857 71.8705Z" fill="#444A58"/>
</g>
</g>
<defs>
<clipPath id="clip0_50_252">
<rect width="81" height="81" fill="white"/>
</clipPath>
</defs>
</svg>
