<svg width="81" height="81" viewBox="0 0 81 81" fill="none" xmlns="http://www.w3.org/2000/svg">
<g clip-path="url(#clip0_50_259)">
<mask id="mask0_50_259" style="mask-type:luminance" maskUnits="userSpaceOnUse" x="0" y="0" width="81" height="81">
<path d="M81 0H0V81H81V0Z" fill="white"/>
</mask>
<g mask="url(#mask0_50_259)">
<path d="M78.5936 72.287C78.5936 72.287 60.1487 98.612 21.315 59.7493C-17.7444 20.6091 8.81786 2.41298 8.81786 2.41298C9.64979 1.57783 10.6518 0.931621 11.7557 0.518298C12.8597 0.104973 14.0397 -0.0657752 15.2155 0.0176643C16.3914 0.101103 17.5354 0.436774 18.57 1.00185C19.6045 1.56692 20.5052 2.34815 21.2109 3.29241L28.686 13.3074C29.874 14.8933 30.4508 16.8541 30.3105 18.8306C30.1703 20.8071 29.3224 22.6668 27.9223 24.0689L21.3381 30.6646C21.3381 30.6646 21.3381 36.4851 32.9674 48.1317C44.5967 59.7782 50.4114 59.7782 50.4114 59.7782L56.9955 53.1827C58.3945 51.7812 60.2523 50.9322 62.2275 50.7919C64.2028 50.6516 66.1624 51.2293 67.7454 52.4189L77.7084 59.9055C78.6462 60.6143 79.4215 61.5157 79.9827 62.5484C80.5439 63.5818 80.8778 64.7227 80.9611 65.8955C81.045 67.0683 80.8772 68.2451 80.4687 69.3472C80.0603 70.45 79.4209 71.4521 78.5936 72.287Z" fill="#444A58"/>
</g>
</g>
<defs>
<clipPath id="clip0_50_259">
<rect width="81" height="81" fill="white"/>
</clipPath>
</defs>
</svg>
