<svg width="81" height="81" viewBox="0 0 81 81" fill="none" xmlns="http://www.w3.org/2000/svg">
<g clip-path="url(#clip0_50_282)">
<mask id="mask0_50_282" style="mask-type:luminance" maskUnits="userSpaceOnUse" x="0" y="0" width="81" height="81">
<path d="M81 0H0V81H81V0Z" fill="white"/>
</mask>
<g mask="url(#mask0_50_282)">
<path d="M4.88892 69.1335V63.3131C4.99686 61.1926 5.6824 59.1422 6.87139 57.3829C8.06041 55.6239 9.70766 54.2234 11.6351 53.3327C30.1591 45.8921 50.8409 45.8921 69.3649 53.3327C71.2921 54.2234 72.9393 55.6239 74.1283 57.3829C75.3178 59.1422 76.0029 61.1926 76.1111 63.3131V69.1335C76.1105 70.6933 75.8021 72.2381 75.2039 73.6793C74.6062 75.12 73.7297 76.4287 72.6257 77.5309C71.5212 78.6331 70.2108 79.5067 68.769 80.1021C67.3266 80.6968 65.7812 81.0023 64.2214 81H16.7786C15.2185 81.0023 13.6733 80.6968 12.2312 80.1021C10.7892 79.5067 9.4786 78.6331 8.3744 77.5309C7.27019 76.4287 6.39401 75.12 5.79594 73.6793C5.1979 72.2381 4.88967 70.6933 4.88892 69.1335ZM40.5 8.46259e-07C36.5862 -0.00114353 32.76 1.15838 29.5053 3.33192C26.2505 5.50547 23.7135 8.59537 22.2149 12.2109C20.7164 15.8265 20.3237 19.8051 21.0865 23.6439C21.8494 27.4826 23.7335 31.0089 26.5005 33.7767C29.2676 36.5446 32.7933 38.4297 36.6318 39.1936C40.4703 39.9576 44.4491 39.5661 48.0651 38.0686C51.6811 36.5712 54.7717 34.035 56.9462 30.7809C59.1207 27.5268 60.2813 23.7009 60.2813 19.7871C60.2819 17.189 59.771 14.616 58.7771 12.2154C57.7835 9.81471 56.3265 7.63332 54.4895 5.7959C52.6526 3.95839 50.4717 2.50079 48.0713 1.50632C45.671 0.511852 43.0982 7.35127e-07 40.5 8.46259e-07Z" fill="#444A58"/>
</g>
</g>
<defs>
<clipPath id="clip0_50_282">
<rect width="81" height="81" fill="white"/>
</clipPath>
</defs>
</svg>
